<svg width="19" height="30" viewBox="0 0 19 30" fill="none" xmlns="http://www.w3.org/2000/svg">
<path d="M0.000770795 14.9995C0.000770795 14.1858 0.318232 13.4209 0.893012 12.8455L12.849 0.890897C14.0364 -0.296477 15.969 -0.296477 17.1563 0.890897C17.7318 1.46631 18.0486 2.23121 18.0486 3.04561C18.0486 3.86002 17.7318 4.62492 17.1563 5.19959L7.35505 14.9995L17.1563 24.8002C17.7318 25.3756 18.0486 26.1398 18.0486 26.9541C18.0486 27.7684 17.7318 28.5327 17.1563 29.1081C16.5809 29.6842 15.816 30.0004 15.0024 30.0004C14.1887 30.0004 13.4238 29.6835 12.8484 29.1081L0.895015 17.1541C0.317601 16.5781 0.000770795 15.8124 0.000770795 14.9995ZM16.6947 3.04551C16.6947 2.59333 16.5187 2.16822 16.1992 1.84802C15.5392 1.18803 14.4656 1.18803 13.8062 1.84802L1.85088 13.8027C1.21722 14.4363 1.20911 15.5335 1.83128 16.1747L13.8061 28.1495C14.1263 28.4697 14.5508 28.645 15.003 28.645C15.4552 28.645 15.8796 28.469 16.1998 28.1495C16.8389 27.5099 16.8389 26.3962 16.1998 25.7566L5.4407 14.9995L16.1991 4.24236C16.5187 3.92216 16.6947 3.49769 16.6947 3.04551Z" fill="#236FB5"/>
</svg>
