<svg width="19" height="31" viewBox="0 0 19 31" fill="none" xmlns="http://www.w3.org/2000/svg">
<path d="M18.7801 15.8195C18.7801 16.6331 18.4626 17.398 17.8878 17.9734L5.93129 29.9276C4.74387 31.1149 2.81129 31.1148 1.62397 29.9274C1.04858 29.3519 0.731781 28.587 0.731815 27.7726C0.731848 26.9582 1.04871 26.1933 1.62415 25.6187L11.4258 15.8192L1.62495 6.01811C1.04956 5.44267 0.732763 4.67839 0.732797 3.86409C0.73283 3.04979 1.04969 2.28554 1.62513 1.71015C2.20056 1.13413 2.96548 0.817963 3.77914 0.817996C4.59281 0.818029 5.3577 1.13489 5.93309 1.71032L17.886 13.6648C18.4634 14.2409 18.7802 15.0065 18.7801 15.8195ZM2.08571 27.7728C2.0857 28.225 2.26168 28.6501 2.58113 28.9703C3.2411 29.6303 4.31472 29.6304 4.9741 28.9704L16.93 17.0162C17.5637 16.3826 17.5718 15.2854 16.9497 14.6442L4.97529 2.66889C4.6551 2.34867 4.23063 2.17339 3.77846 2.17337C3.32628 2.17335 2.90179 2.34934 2.58158 2.66879C1.94252 3.30842 1.94248 4.42207 2.58148 5.06176L13.3402 15.8192L2.58134 26.576C2.26175 26.8961 2.08573 27.3206 2.08571 27.7728Z" fill="#236FB5"/>
</svg>
