<svg width="60" height="60" viewBox="0 0 60 60" fill="none" xmlns="http://www.w3.org/2000/svg">
<g clip-path="url(#clip0)">
<path d="M11.5113 31.0075C12.5347 31.0075 13.547 30.8643 14.53 30.6002L20.1904 36.2606L9.41106 47.04C9.2215 47.2295 9.11563 47.4856 9.11563 47.7528C9.11563 48.02 9.2215 48.2781 9.41106 48.4657L16.0908 55.1444C16.2874 55.341 16.5456 55.4398 16.8037 55.4398C17.0618 55.4398 17.3199 55.341 17.5165 55.1444L28.2949 44.364L38.5318 54.5989C38.7214 54.7885 38.9765 54.8944 39.2447 54.8944C39.5119 54.8944 39.769 54.7895 39.9575 54.5989L46.6363 47.9192C47.0305 47.5249 47.0305 46.8887 46.6363 46.4935L36.4014 36.2606L44.6561 28.0059C45.0513 27.6116 45.0513 26.9744 44.6561 26.5802L43.6932 25.6173L46.7512 22.5602L51.6 27.407C51.7956 27.6036 52.0537 27.7024 52.3128 27.7024C52.571 27.7024 52.8291 27.6036 53.0257 27.407L59.7055 20.7282C59.895 20.5387 60.0009 20.2826 60.0009 20.0154C60.0009 19.7482 59.895 19.4911 59.7055 19.3025L45.256 4.85505C44.9868 4.58685 44.5895 4.49308 44.2276 4.61004L39.2013 6.26158C38.8958 6.3614 38.6579 6.60036 38.5571 6.90486L36.9055 11.9321C36.7865 12.293 36.8823 12.6903 37.1505 12.9595L41.9983 17.8073L38.9412 20.8643L37.9783 19.9014C37.6002 19.5233 36.9317 19.5233 36.5536 19.9014L28.2979 28.1561L22.6224 22.4806C23.6982 18.4939 22.6163 14.2783 19.6782 11.3402C17.5024 9.16438 14.6087 7.96555 11.5304 7.96555C10.4012 7.96555 9.282 8.1299 8.20315 8.45355C7.86337 8.55539 7.60222 8.82863 7.51551 9.17245C7.4288 9.51627 7.52963 9.88126 7.78069 10.1313L10.8499 13.2015L12.1455 17.4453L9.48466 20.1061L5.23784 18.8115L2.16766 15.7423C1.9166 15.4913 1.55161 15.3914 1.2088 15.4771C0.864979 15.5639 0.591739 15.825 0.489904 16.1648C-0.734133 20.2392 0.371936 24.6363 3.37557 27.6399C5.54637 29.8117 8.43606 31.0075 11.5113 31.0075ZM40.3124 8.01798L44.2659 6.71833L57.5639 20.0144L52.3108 25.2674L39.0128 11.9714L40.3124 8.01798ZM34.9747 37.6853L44.4968 47.2073L39.2437 52.4604L29.7206 42.9393L32.1435 40.5175L34.9747 37.6853ZM43.4219 19.2319L45.3235 21.1335L42.2665 24.1906L40.3639 22.289L43.4219 19.2319ZM37.2624 22.04L38.2253 23.0029L41.5536 26.3301L42.5155 27.293L30.6613 39.1472L27.5821 42.2275C27.5821 42.2275 27.5821 42.2275 27.5821 42.2285L16.8037 53.0059L11.5506 47.7528L22.33 36.9744L29.0098 30.2957C29.0098 30.2957 29.0098 30.2947 29.0108 30.2947L37.2624 22.04ZM21.6161 34.8349L16.6111 29.8278C16.9247 29.6766 17.2271 29.5072 17.5226 29.3277C17.5901 29.2864 17.6547 29.24 17.7222 29.1977C17.9965 29.0232 18.2626 28.8367 18.5208 28.6391C18.6075 28.5725 18.6942 28.507 18.7789 28.4374C19.0874 28.1864 19.3889 27.9252 19.6742 27.6399C19.9585 27.3556 20.2207 27.0541 20.4718 26.7445C20.5403 26.6598 20.6069 26.5721 20.6734 26.4854C20.871 26.2273 21.0565 25.9611 21.231 25.6869C21.2733 25.6193 21.3207 25.5548 21.3621 25.4862C21.5415 25.1908 21.7109 24.8873 21.8632 24.5747L26.8692 29.5808L21.6161 34.8349ZM2.06784 18.4949L3.9896 20.4156C4.10656 20.5326 4.24973 20.6193 4.40803 20.6677L9.47155 22.2134C9.82848 22.3213 10.2157 22.2255 10.4788 21.9613L13.9967 18.4435C14.2598 18.1803 14.3566 17.7921 14.2487 17.4362L12.7031 12.3737C12.6547 12.2154 12.5679 12.0722 12.451 11.9553L10.5312 10.0345C13.3746 9.73809 16.2189 10.7353 18.2495 12.7659C20.7994 15.3158 21.6787 19.0353 20.5454 22.4735C20.0735 23.9032 19.3012 25.1626 18.2495 26.2142C17.9864 26.4773 17.7111 26.7224 17.4228 26.9502C16.5587 27.6328 15.5817 28.1561 14.5089 28.51C13.5409 28.8286 12.5337 28.99 11.5123 28.99C8.97549 28.99 6.59295 28.0029 4.80126 26.2132C2.74842 24.1614 1.7704 21.3201 2.06784 18.4949Z" fill="#236FB5"/>
<path d="M15.4224 49.6344C15.0282 50.0286 15.0282 50.6648 15.4224 51.06C15.619 51.2557 15.8771 51.3555 16.1352 51.3555C16.3933 51.3555 16.6515 51.2557 16.8481 51.06L30.8398 37.0683C31.234 36.6731 31.234 36.0369 30.8398 35.6426C30.4456 35.2474 29.8084 35.2474 29.4141 35.6426L15.4224 49.6344Z" fill="#236FB5"/>
</g>
<defs>
<clipPath id="clip0">
<rect width="60" height="60" fill="white"/>
</clipPath>
</defs>
</svg>
