<svg width="60" height="60" viewBox="0 0 60 60" fill="none" xmlns="http://www.w3.org/2000/svg">
<path d="M39.5055 35.2563L30.7958 22.6756C30.7068 22.5469 30.5879 22.4416 30.4492 22.369C30.3106 22.2963 30.1564 22.2583 29.9999 22.2583C29.8433 22.2583 29.6891 22.2963 29.5505 22.369C29.4119 22.4416 29.2929 22.5469 29.2039 22.6756L20.4942 35.2563C20.4087 35.3797 20.3532 35.5214 20.332 35.6701C20.3107 35.8187 20.3245 35.9703 20.372 36.1127L22.8507 43.5486H22.2579C22.0013 43.5486 21.7551 43.6506 21.5736 43.8321C21.3921 44.0135 21.2902 44.2597 21.2902 44.5163V47.4196C21.2902 47.6762 21.3921 47.9224 21.5736 48.1039C21.7551 48.2854 22.0013 48.3873 22.2579 48.3873H23.2257V59.0325C23.2257 59.2891 23.3276 59.5353 23.5091 59.7168C23.6906 59.8983 23.9367 60.0002 24.1934 60.0002H35.8063C36.063 60.0002 36.3091 59.8983 36.4906 59.7168C36.6721 59.5353 36.7741 59.2891 36.7741 59.0325V48.3873H37.7418C37.9985 48.3873 38.2446 48.2854 38.4261 48.1039C38.6076 47.9224 38.7095 47.6762 38.7095 47.4196V44.5163C38.7095 44.2597 38.6076 44.0135 38.4261 43.8321C38.2446 43.6506 37.9985 43.5486 37.7418 43.5486H37.1491L39.6277 36.1127C39.6752 35.9703 39.689 35.8187 39.6678 35.6701C39.6466 35.5214 39.591 35.3797 39.5055 35.2563V35.2563ZM29.9999 33.8712C30.1913 33.8712 30.3784 33.9279 30.5375 34.0343C30.6967 34.1406 30.8207 34.2918 30.8939 34.4686C30.9672 34.6454 30.9863 34.84 30.949 35.0277C30.9117 35.2155 30.8195 35.3879 30.6842 35.5232C30.5488 35.6586 30.3764 35.7507 30.1887 35.7881C30.0009 35.8254 29.8064 35.8063 29.6295 35.733C29.4527 35.6598 29.3015 35.5357 29.1952 35.3766C29.0889 35.2174 29.0321 35.0303 29.0321 34.8389C29.0325 34.5824 29.1345 34.3364 29.316 34.155C29.4974 33.9736 29.7433 33.8715 29.9999 33.8712V33.8712ZM34.8386 58.0647H25.1611V48.3873H34.8386V58.0647ZM36.7741 46.4518H23.2257V45.4841H36.7741V46.4518ZM35.1083 43.5486H24.8914L22.3607 35.9603L29.0321 26.324V31.9357C29.0326 31.99 29.0375 32.0442 29.0466 32.0978C28.3985 32.3231 27.8511 32.7707 27.5016 33.3612C27.152 33.9516 27.0229 34.6468 27.1372 35.3234C27.2514 36 27.6016 36.6143 28.1256 37.0573C28.6497 37.5003 29.3137 37.7433 29.9999 37.7433C30.686 37.7433 31.35 37.5003 31.8741 37.0573C32.3981 36.6143 32.7483 36 32.8626 35.3234C32.9768 34.6468 32.8477 33.9516 32.4982 33.3612C32.1486 32.7707 31.6012 32.3231 30.9531 32.0978C30.9622 32.0442 30.9671 31.99 30.9676 31.9357V26.324L37.639 35.9603L35.1083 43.5486Z" fill="#236FB5"/>
<path d="M59.0323 10.6452H55.1613C54.9046 10.6452 54.6585 10.7471 54.477 10.9286C54.2955 11.1101 54.1935 11.3562 54.1935 11.6129V12.5891C54.1534 12.5838 54.113 12.581 54.0726 12.5806H32.9032V11.6129C32.9032 11.3562 32.8013 11.1101 32.6198 10.9286C32.4383 10.7471 32.1921 10.6452 31.9355 10.6452H30.9677V5.80645H31.9355C32.1921 5.80645 32.4383 5.70449 32.6198 5.52301C32.8013 5.34152 32.9032 5.09537 32.9032 4.83871V0.967742C32.9032 0.711081 32.8013 0.464932 32.6198 0.283445C32.4383 0.101958 32.1921 0 31.9355 0H28.0645C27.8079 0 27.5617 0.101958 27.3802 0.283445C27.1987 0.464932 27.0968 0.711081 27.0968 0.967742V4.83871C27.0968 5.09537 27.1987 5.34152 27.3802 5.52301C27.5617 5.70449 27.8079 5.80645 28.0645 5.80645H29.0323V10.6452H28.0645C27.8079 10.6452 27.5617 10.7471 27.3802 10.9286C27.1987 11.1101 27.0968 11.3562 27.0968 11.6129V12.5806H5.80645V11.6129C5.80645 11.3562 5.70449 11.1101 5.52301 10.9286C5.34152 10.7471 5.09537 10.6452 4.83871 10.6452H0.967742C0.711081 10.6452 0.464932 10.7471 0.283445 10.9286C0.101958 11.1101 0 11.3562 0 11.6129V15.4839C0 15.7405 0.101958 15.9867 0.283445 16.1682C0.464932 16.3497 0.711081 16.4516 0.967742 16.4516H4.83871C5.09537 16.4516 5.34152 16.3497 5.52301 16.1682C5.70449 15.9867 5.80645 15.7405 5.80645 15.4839V14.5161H21.8056C20.5284 15.3611 19.3868 16.3951 18.4198 17.5827C15.9387 20.5911 14.5161 24.4113 14.5161 28.0645H13.5484C13.2917 28.0645 13.0456 28.1665 12.8641 28.348C12.6826 28.5294 12.5806 28.7756 12.5806 29.0323V32.9032C12.5806 33.1599 12.6826 33.406 12.8641 33.5875C13.0456 33.769 13.2917 33.871 13.5484 33.871H17.4194C17.676 33.871 17.9222 33.769 18.1037 33.5875C18.2851 33.406 18.3871 33.1599 18.3871 32.9032V29.0323C18.3871 28.7756 18.2851 28.5294 18.1037 28.348C17.9222 28.1665 17.676 28.0645 17.4194 28.0645H16.4516C16.4516 20.8887 21.9726 15.2286 27.0968 14.579V15.4839C27.0968 15.7405 27.1987 15.9867 27.3802 16.1682C27.5617 16.3497 27.8079 16.4516 28.0645 16.4516H31.9355C32.1921 16.4516 32.4383 16.3497 32.6198 16.1682C32.8013 15.9867 32.9032 15.7405 32.9032 15.4839V14.5754C35.5234 14.8863 38.0383 16.4565 40.0681 19.0754C42.0435 21.6218 43.298 24.9194 43.5145 28.0645H42.5806C42.324 28.0645 42.0778 28.1665 41.8963 28.348C41.7149 28.5294 41.6129 28.7756 41.6129 29.0323V32.9032C41.6129 33.1599 41.7149 33.406 41.8963 33.5875C42.0778 33.769 42.324 33.871 42.5806 33.871H46.4516C46.7083 33.871 46.9544 33.769 47.1359 33.5875C47.3174 33.406 47.4194 33.1599 47.4194 32.9032V29.0323C47.4194 28.7756 47.3174 28.5294 47.1359 28.348C46.9544 28.1665 46.7083 28.0645 46.4516 28.0645H45.4536C45.2419 24.4706 43.8641 20.8101 41.5984 17.8887C40.602 16.5806 39.4011 15.4418 38.0419 14.5161H54.0726C54.113 14.5158 54.1534 14.5129 54.1935 14.5077V15.4839C54.1935 15.7405 54.2955 15.9867 54.477 16.1682C54.6585 16.3497 54.9046 16.4516 55.1613 16.4516H59.0323C59.2889 16.4516 59.5351 16.3497 59.7166 16.1682C59.898 15.9867 60 15.7405 60 15.4839V11.6129C60 11.3562 59.898 11.1101 59.7166 10.9286C59.5351 10.7471 59.2889 10.6452 59.0323 10.6452ZM3.87097 14.5161H1.93548V12.5806H3.87097V14.5161ZM16.4516 31.9355H14.5161V30H16.4516V31.9355ZM29.0323 1.93548H30.9677V3.87097H29.0323V1.93548ZM30.9677 14.5161H29.0323V12.5806H30.9677V14.5161ZM43.5484 30H45.4839V31.9355H43.5484V30ZM58.0645 14.5161H56.129V12.5806H58.0645V14.5161Z" fill="#236FB5"/>
</svg>
