<svg width="60" height="60" viewBox="0 0 60 60" fill="none" xmlns="http://www.w3.org/2000/svg">
<path d="M26.3274 34.3025H3.71158C2.67749 34.3025 2.67749 32.7393 3.71158 32.7393H24.1361C25.2983 32.7393 25.2997 30.9819 24.1361 30.9819H5.44421V5.07843H53.161V30.9819H47.5045C46.3427 30.9819 46.3404 32.7393 47.5045 32.7393H55.2118C56.2455 32.7393 56.2455 34.3025 55.2118 34.3025H45.4702C44.3083 34.3025 44.3065 36.0603 45.4702 36.0603H55.2118C56.6117 36.0603 57.7506 34.921 57.7506 33.5211C57.7506 32.1208 56.6117 30.9819 55.2118 30.9819H54.9189V5.07843H55.2118C56.6117 5.07843 57.7506 3.93906 57.7506 2.53922C57.7506 1.13892 56.6117 0 55.2118 0H3.71158C2.31128 0 1.17236 1.13892 1.17236 2.53922C1.17236 3.93082 2.298 5.0647 3.6864 5.07843V30.9819C2.298 30.9956 1.17236 32.1291 1.17236 33.5211C1.17236 34.921 2.31128 36.0603 3.71158 36.0603H26.3274C27.4892 36.0603 27.491 34.3025 26.3274 34.3025V34.3025ZM3.71158 1.75781H55.2118C56.2455 1.75781 56.2455 3.32062 55.2118 3.32062H3.71158C2.67703 3.32062 2.67841 1.75781 3.71158 1.75781V1.75781Z" fill="#236FB5"/>
<path d="M16.2986 8.25729C16.2986 7.4855 15.6705 6.85791 14.8987 6.85791H9.38132C8.60953 6.85791 7.98193 7.4855 7.98193 8.25729V11.6658C7.98193 12.4376 8.60953 13.0652 9.38132 13.0652H14.8987C15.6705 13.0652 16.2986 12.4376 16.2986 11.6658V8.25729ZM14.5408 11.3074H9.73929V8.61526H14.5408V11.3074Z" fill="#236FB5"/>
<path d="M16.2986 16.4023C16.2986 15.6305 15.6705 15.0029 14.8987 15.0029H9.38132C8.60953 15.0029 7.98193 15.6305 7.98193 16.4023V19.8108C7.98193 20.5826 8.60953 21.2102 9.38132 21.2102H14.8987C15.6705 21.2102 16.2986 20.5826 16.2986 19.8108V16.4023ZM14.5408 19.4524H9.73929V16.7603H14.5408V19.4524Z" fill="#236FB5"/>
<path d="M14.8987 23.1484H9.38132C8.60953 23.1484 7.98193 23.776 7.98193 24.5478V27.9563C7.98193 28.7281 8.60953 29.3557 9.38132 29.3557H14.8987C15.6705 29.3557 16.2986 28.7281 16.2986 27.9563V24.5478C16.2986 23.776 15.6705 23.1484 14.8987 23.1484ZM14.5408 27.5984H9.73929V24.9058H14.5408V27.5984Z" fill="#236FB5"/>
<path d="M53.4788 39.9352C52.5216 39.5237 51.5177 39.2298 50.4951 39.0307L41.5902 37.2994V35.0989C44.091 33.3933 45.4446 30.9772 45.7394 28.2641C47.0371 28.1611 48.0621 27.0721 48.0621 25.7482V23.9419C50.1783 23.0218 49.8922 19.9337 47.6533 19.4128V18.7151C47.6533 12.4479 42.5726 7.3667 36.3049 7.3667H35.3536C29.0859 7.3667 24.0052 12.4479 24.0052 18.7151V19.4123C21.7672 19.9332 21.4802 23.0218 23.5969 23.9419V25.7477C23.5969 27.0721 24.6214 28.1611 25.9196 28.2636C26.213 30.9644 27.5501 33.381 30.0688 35.0989V37.299L21.1639 39.0307C20.1412 39.2298 19.1374 39.5232 18.1802 39.9352C14.567 41.4902 12.8042 43.9727 12.8042 47.4792V49.2846C12.8042 50.4464 14.5616 50.4482 14.5616 49.2846V47.4796C14.5616 44.8461 15.7581 43.0251 18.383 41.7672C18.4887 42.235 20.0991 46.6062 20.0991 52.7137V58.2426H16.3853C15.3782 58.2426 14.5616 57.4259 14.5616 56.4188V52.7814C14.5616 51.6196 12.8042 51.6178 12.8042 52.7814V56.4188C12.8042 58.3968 14.4073 59.9999 16.3853 59.9999H55.2737C57.2517 59.9999 58.8548 58.3968 58.8548 56.4188V47.4796C58.8548 43.9727 57.0915 41.4902 53.4788 39.9352V39.9352ZM51.6372 41.114C51.515 41.6505 49.802 46.262 49.802 52.7137V58.2426H36.7082V53.8146C36.7082 52.4981 37.1087 51.2328 37.8663 50.1562C39.0011 48.5425 43.6753 41.7983 45.0614 39.7649C51.3703 41.0352 50.6095 40.772 51.6372 41.114V41.114ZM35.23 49.1445C34.5558 48.1859 33.6801 46.928 32.7659 45.6096C33.0374 45.5497 33.3024 45.4453 33.551 45.2965L35.8293 43.9301L38.1075 45.2965C38.3561 45.4453 38.6212 45.5497 38.8926 45.6096C37.9794 46.9276 37.1037 48.185 36.4289 49.1445C36.2042 49.464 36.0041 49.7964 35.8293 50.1392C35.6548 49.7964 35.4548 49.464 35.23 49.1445ZM34.0353 42.9565C32.6437 43.7017 32.7426 43.9246 32.1104 43.8495C31.7172 43.8029 31.3642 43.584 31.139 43.2581C30.0884 41.7365 29.1157 40.3248 28.4789 39.3987L30.239 39.0568C30.8076 40.7834 32.6812 42.1567 34.0353 42.9565V42.9565ZM43.18 39.3992C42.5414 40.3271 41.5664 41.7429 40.5131 43.2682C40.0833 43.8898 39.3128 43.9695 39.0116 43.7887L37.6232 42.9565C38.9778 42.1567 40.8509 40.7834 41.4195 39.0568L43.18 39.3992ZM30.7105 10.3252V11.4275C30.7105 12.5893 32.4679 12.5912 32.4679 11.4275V9.56808C33.2566 9.3186 34.0893 9.16891 34.9508 9.13321V13.4788C34.9508 14.6406 36.7082 14.6424 36.7082 13.4788V9.13321C37.5697 9.16891 38.4023 9.31906 39.1906 9.56808V11.4275C39.1906 12.5893 40.9484 12.5912 40.9484 11.4275V10.3257C46.4425 13.3781 45.8584 19.2118 45.8959 19.351H25.763C25.7932 19.2379 25.2448 13.3625 30.7105 10.3252V10.3252ZM24.5481 21.1083H47.1108C47.9536 21.1083 47.9522 22.3813 47.1108 22.3813H24.5481C23.7054 22.3813 23.7068 21.1083 24.5481 21.1083V21.1083ZM27.6216 27.3742C27.611 26.8963 27.221 26.5145 26.7426 26.5145C26.5962 26.4779 25.3547 26.7425 25.3547 25.7482V24.1392H46.3047V25.7482C46.3047 26.7411 45.0294 26.4861 44.9163 26.5145C44.438 26.5145 44.0475 26.8963 44.0374 27.3742C43.9903 29.5714 43.0569 31.6122 41.4758 32.9731C38.1194 35.8629 33.54 35.8634 30.1832 32.9731C28.6021 31.6122 27.6682 29.571 27.6216 27.3742V27.3742ZM39.8324 36.0694V38.0236C39.8324 39.5951 37.1655 41.2591 35.8293 41.9315C34.4944 41.2595 31.8334 39.5997 31.8261 38.03C31.8261 38.0282 31.8261 38.0259 31.8261 38.0236V36.0694C34.3841 37.1726 37.2717 37.174 39.8324 36.0694V36.0694ZM20.0218 41.114C21.0481 40.7729 20.2854 41.0357 26.5971 39.7649L27.0992 40.4946C27.6115 41.2394 28.3206 42.2689 29.1065 43.4078C30.5403 45.4861 32.5178 48.3439 33.7927 50.1557C34.5503 51.2328 34.9508 52.4976 34.9508 53.8146V58.2421H21.8569V52.7132C21.8569 46.0958 20.1856 41.8354 20.0218 41.114V41.114ZM57.097 56.4188C57.097 57.4241 56.2794 58.2421 55.2737 58.2421H51.5598V52.7137C51.5598 46.7737 53.211 42.0547 53.2765 41.7672C55.9008 43.0251 57.0974 44.8461 57.0974 47.4796V56.4188H57.097Z" fill="#236FB5"/>
<path d="M40.62 50.834C39.7915 50.834 39.1172 51.5083 39.1172 52.3368V54.0978C39.1172 54.9268 39.7915 55.6007 40.62 55.6007H45.7886C46.6172 55.6007 47.2915 54.9268 47.2915 54.0978V52.3368C47.2915 51.5083 46.6172 50.834 45.7886 50.834H40.62ZM45.5337 53.8429H40.875V52.5918H45.5337V53.8429Z" fill="#236FB5"/>
</svg>
